<svg xmlns="http://www.w3.org/2000/svg" xmlns:xlink="http://www.w3.org/1999/xlink" width="360" height="192"><defs><linearGradient id="a" data-name="Linear ground shadow - light-B" x1="63" y1="172" x2="95" y2="172" gradientUnits="userSpaceOnUse"><stop offset="0" stop-color="#bdc1c6" stop-opacity="0"/><stop offset=".137" stop-color="#bdc1c6" stop-opacity=".021"/><stop offset=".279" stop-color="#bdc1c6" stop-opacity=".084"/><stop offset=".424" stop-color="#bdc1c6" stop-opacity=".189"/><stop offset=".57" stop-color="#bdc1c6" stop-opacity=".336"/><stop offset=".718" stop-color="#bdc1c6" stop-opacity=".525"/><stop offset=".864" stop-color="#bdc1c6" stop-opacity=".753"/><stop offset="1" stop-color="#bdc1c6"/></linearGradient><linearGradient id="d" x1="186" y1="153" x2="186" y2="111" gradientUnits="userSpaceOnUse"><stop offset="0" stop-color="#3c4043"/><stop offset=".093" stop-color="#44484b"/><stop offset=".346" stop-color="#53575b"/><stop offset=".628" stop-color="#5c6065"/><stop offset="1" stop-color="#5f6368"/></linearGradient><linearGradient id="e" x1="132" y1="126" x2="132" y2="174" gradientUnits="userSpaceOnUse"><stop offset="0" stop-color="#80868b"/><stop offset=".335" stop-color="#7c8287"/><stop offset=".681" stop-color="#70757a"/><stop offset="1" stop-color="#5f6368"/></linearGradient><linearGradient id="b" x1="125.982" y1="162.22" x2="131.395" y2="159.095" gradientUnits="userSpaceOnUse"><stop offset="0" stop-color="#f29900"/><stop offset="1" stop-color="#fbbc04"/></linearGradient><linearGradient id="f" x1="178" y1="182" x2="271" y2="182" xlink:href="#a"/><linearGradient id="g" x1="253" y1="184" x2="253" y2="156" xlink:href="#b"/><linearGradient id="c" x1="273.5" y1="158" x2="273.5" y2="165" gradientUnits="userSpaceOnUse"><stop offset="0" stop-color="#fff"/><stop offset=".024" stop-color="#fff" stop-opacity=".928"/><stop offset=".094" stop-color="#fff" stop-opacity=".735"/><stop offset=".17" stop-color="#fff" stop-opacity=".56"/><stop offset=".25" stop-color="#fff" stop-opacity=".409"/><stop offset=".335" stop-color="#fff" stop-opacity=".282"/><stop offset=".426" stop-color="#fff" stop-opacity=".179"/><stop offset=".525" stop-color="#fff" stop-opacity=".099"/><stop offset=".637" stop-color="#fff" stop-opacity=".043"/><stop offset=".774" stop-color="#fff" stop-opacity=".01"/><stop offset="1" stop-color="#fff" stop-opacity="0"/></linearGradient><linearGradient id="h" x1="237.5" x2="237.5" xlink:href="#c"/><linearGradient id="j" x1="107.771" y1="159.175" x2="94.053" y2="172.893" gradientUnits="userSpaceOnUse"><stop offset="0" stop-color="#5f6368"/><stop offset=".362" stop-color="#5c6065"/><stop offset=".652" stop-color="#53575b"/><stop offset=".917" stop-color="#43474a"/><stop offset="1" stop-color="#3c4043"/></linearGradient><clipPath id="i"><path fill="none" d="M90 144h42v30H90z"/></clipPath></defs><path fill="url(#a)" d="M63 170h32v4H63z"/><path d="M172 151a24 24 0 0 1 48 0" fill="#fff" stroke="#e8eaed" stroke-miterlimit="10" stroke-width="2"/><path d="M147 174a24 24 0 0 1 0-48h24v48z" fill="#5f6368"/><path d="M192 150v-7.03A40.97 40.97 0 0 0 180 114h0" fill="none" stroke-linecap="round" stroke-miterlimit="10" stroke-width="6" stroke="url(#d)"/><path d="M171 174H93a25.648 25.648 0 0 0 22.354-13.074l6.409-11.393A46.166 46.166 0 0 1 162 126h9z" fill="url(#e)"/><circle cx="171" cy="150" r="24" fill="#80868b"/><path fill="#f8f9fa" stroke="#e8eaed" stroke-miterlimit="10" stroke-width="2" d="m243.364 63.454 3.182 3.182L240.182 73 237 69.818z"/><path d="M201 90a27 27 0 0 1 27-27m-18 35v24" fill="none" stroke="#e8eaed" stroke-linecap="round" stroke-miterlimit="10" stroke-width="2"/><circle cx="246" cy="97" r="3" fill="#f8f9fa" stroke="#e8eaed" stroke-miterlimit="10" stroke-width="2"/><path fill="none" stroke="#e8eaed" stroke-linecap="round" stroke-miterlimit="10" stroke-width="2" d="M201 98v9"/><path fill="#f8f9fa" stroke="#e8eaed" stroke-miterlimit="10" stroke-width="2" d="m258 79 3 3-3 3.001-3-3z"/><path d="M210 90a18 18 0 0 1 18-18" fill="none" stroke="#e8eaed" stroke-linecap="round" stroke-miterlimit="10" stroke-width="2"/><path d="M77 36a22 22 0 1 1-22 22 22.025 22.025 0 0 1 22-22m0-2a24 24 0 1 0 24 24 24 24 0 0 0-24-24z" fill="#fbbc04"/><path fill="none" stroke="#fbbc04" stroke-linecap="round" stroke-miterlimit="10" stroke-width="2" d="M77 26v-6M54.373 35.373 50.13 31.13M45 58h-6m60.627-22.627 4.243-4.243"/><g fill="#fff" stroke="#e8eaed" stroke-linecap="round" stroke-miterlimit="10" stroke-width="2"><path d="M81 78a21.679 21.679 0 0 1 39.668-12.096A12.644 12.644 0 0 1 137 78"/><path d="M124.355 65.355a12.606 12.606 0 0 0-8.942 3.703"/></g><g fill="#fff" stroke="#e8eaed" stroke-linecap="round" stroke-miterlimit="10" stroke-width="2"><path d="M21 88.686a8.183 8.183 0 0 1 9.597-8.106 24.688 24.688 0 0 1 43.805-5.669A14.4 14.4 0 0 1 93 88.686"/><path d="M78.6 74.286a14.355 14.355 0 0 0-10.182 4.217m-33.371 4.364a8.203 8.203 0 0 0-5.818-2.41"/></g><g fill="none" stroke="#e8eaed" stroke-linecap="round" stroke-miterlimit="10" stroke-width="1.75"><path d="M307 54a3.637 3.637 0 0 1 4.265-3.603 10.972 10.972 0 0 1 19.47-2.519A6.4 6.4 0 0 1 339 54"/><path d="M332.6 47.6a6.38 6.38 0 0 0-4.526 1.875m-14.831 1.939a3.646 3.646 0 0 0-2.586-1.071"/></g><g fill="none" stroke="#e8eaed" stroke-linecap="round" stroke-miterlimit="10" stroke-width="1.75"><path d="M255 34.029a9.29 9.29 0 0 1 17-5.184 5.42 5.42 0 0 1 7 5.184"/><path d="M273.58 28.61a5.402 5.402 0 0 0-3.831 1.587"/></g><path fill="none" d="M0 0h360v192H0z"/><path fill="#fff" d="M89 174h180v2H89z"/><path d="M120.22 146a2.08 2.08 0 0 0-1.73 3.234L135 174h5l-18.05-27.074a2.08 2.08 0 0 0-1.73-.926z" fill="url(#b)"/><path d="M192 174a36 36 0 0 1 72 0" fill="#fff" stroke="#e8eaed" stroke-miterlimit="10" stroke-width="2"/><path d="M219 174a24 24 0 0 0-48 0" fill="#fff" stroke="#e8eaed" stroke-miterlimit="10" stroke-width="2"/><path d="M189 174a18 18 0 0 0-36 0" fill="#fff" stroke="#e8eaed" stroke-miterlimit="10" stroke-width="2"/><path d="M144 174a9 9 0 0 1 18 0" fill="#fff" stroke="#e8eaed" stroke-miterlimit="10" stroke-width="2"/><path fill="url(#f)" d="M178 180h93v4h-93z"/><path d="M276.28 170a7.997 7.997 0 1 0-13.28-6h-20a8 8 0 1 0-13.28 6 7.997 7.997 0 1 0 13.28 6h20a8 8 0 1 0 13.28-6z" fill="url(#g)"/><path d="M271 159a5 5 0 0 1 5 5" fill="none" stroke-linecap="round" stroke-miterlimit="10" stroke-width="2" stroke="url(#c)"/><path d="M235 159a5 5 0 0 1 5 5" fill="none" stroke-linecap="round" stroke-miterlimit="10" stroke-width="2" stroke="url(#h)"/><g clip-path="url(#i)"><path d="M96.664 150a4.663 4.663 0 0 1 3.88 2.076L115.16 174h-20l-3.095-18.57a4.663 4.663 0 0 1 4.6-5.43z" fill="url(#j)"/><path d="M112.722 150H116l16 24h-20l-3.224-19.342a4 4 0 0 1 3.946-4.658z" fill="#80868b"/><path fill="#f28b82" d="m126 171-12-19h-3l4 19h11z"/><path d="M108.97 158a3.964 3.964 0 0 0 3.406-1.934l3.616-6.066h-6.959a4 4 0 0 0-3.436 1.952l-.032.054a3.964 3.964 0 0 0 3.406 5.994z" fill="#5f6368"/><path d="M91.22 174h39.56A20.99 20.99 0 0 0 111 160a20.99 20.99 0 0 0-19.78 14z" fill="#80868b"/><path d="M107.477 174a8.988 8.988 0 0 0-16.954 0z" fill="#e8eaed"/></g></svg>